<?xml version="1.0" standalone="no"?>
<!DOCTYPE svg PUBLIC "-//W3C//DTD SVG 20010904//EN"
 "http://www.w3.org/TR/2001/REC-SVG-20010904/DTD/svg10.dtd">
<svg version="1.0" xmlns="http://www.w3.org/2000/svg"
 width="700.000000pt" height="700.000000pt" viewBox="0 0 700.000000 700.000000"
 preserveAspectRatio="xMidYMid meet">
<metadata>
Created by potrace 1.11, written by Peter Selinger 2001-2013
</metadata>
<g transform="translate(0.000000,700.000000) scale(0.100000,-0.100000)"
fill="#000000" stroke="none">
<path d="M2575 5985 c-153 -41 -194 -60 -280 -126 -132 -100 -229 -282 -244
-459 -12 -145 11 -219 107 -342 82 -105 176 -192 312 -288 41 -29 77 -56 80
-59 3 -3 23 -18 45 -33 104 -69 234 -225 275 -328 46 -117 16 -226 -74 -270
-120 -58 -322 6 -459 146 -46 47 -60 72 -107 189 -115 285 -295 458 -535 512
-29 6 -154 5 -195 -2 -142 -24 -262 -85 -356 -179 -76 -77 -110 -131 -144
-228 -42 -120 -36 -296 13 -407 66 -149 205 -290 367 -372 57 -29 73 -32 145
-32 57 1 114 10 195 33 500 136 541 143 635 101 106 -47 236 -224 231 -314 -4
-75 -36 -125 -128 -199 -89 -72 -119 -83 -223 -82 -78 1 -104 6 -190 39 -278
104 -369 125 -505 120 -47 -2 -96 -6 -110 -9 -14 -3 -38 -8 -54 -12 -124 -27
-266 -147 -330 -279 -57 -116 -71 -185 -71 -340 0 -126 5 -152 50 -242 69
-140 205 -243 385 -292 110 -31 292 -25 410 14 77 25 91 33 150 94 79 80 157
190 235 331 91 162 125 210 210 292 223 217 440 70 432 -292 -3 -116 -17 -156
-77 -218 -35 -37 -129 -100 -235 -157 -107 -58 -252 -153 -328 -214 -204 -164
-276 -327 -242 -551 12 -80 25 -126 56 -202 37 -89 94 -183 137 -225 80 -78
257 -135 417 -134 206 1 367 60 498 180 100 93 155 194 175 321 7 47 8 246 1
680 -4 267 1 314 40 358 45 53 199 82 290 56 159 -47 196 -260 109 -639 -52
-230 -66 -323 -63 -435 3 -112 7 -139 31 -211 15 -49 62 -128 98 -168 36 -41
137 -100 205 -122 83 -25 230 -35 315 -20 219 38 455 203 543 380 54 107 52
150 -17 376 -56 186 -134 306 -245 380 -30 20 -115 62 -188 93 -204 89 -302
164 -363 283 -24 45 -28 67 -28 134 -1 71 3 88 32 146 39 81 129 176 197 209
110 53 226 20 343 -97 82 -83 128 -150 217 -313 152 -277 230 -367 365 -416
63 -22 117 -29 250 -29 127 1 181 15 279 75 166 103 291 351 293 581 0 109
-14 175 -60 262 -113 218 -396 323 -711 262 -13 -2 -87 -23 -165 -46 -130 -39
-150 -42 -256 -42 -165 0 -252 37 -307 130 -45 78 -37 196 19 263 53 63 157
101 282 104 114 2 187 -12 421 -84 170 -52 344 -59 475 -19 191 59 325 206
367 403 16 81 21 206 10 283 -29 210 -178 397 -383 483 -82 34 -87 35 -184 48
-61 9 -78 8 -168 -3 -112 -15 -232 -76 -322 -165 -84 -83 -100 -107 -178 -264
-35 -71 -81 -156 -103 -187 -43 -64 -137 -159 -156 -159 -7 0 -13 -4 -13 -10
0 -5 -8 -10 -18 -10 -10 0 -22 -4 -27 -9 -6 -5 -36 -13 -68 -16 -52 -6 -65 -4
-120 24 -100 49 -237 208 -246 284 -10 100 335 396 462 397 141 0 432 333 483
551 21 91 -5 210 -67 316 -43 73 -175 207 -258 263 -220 148 -468 194 -621
115 -167 -85 -288 -231 -325 -390 -16 -67 -22 -207 -12 -270 3 -16 8 -50 12
-75 4 -25 20 -99 37 -165 80 -320 90 -424 49 -507 -38 -78 -135 -162 -215
-185 -56 -17 -172 -9 -235 16 -77 31 -106 55 -131 106 -47 98 -26 285 85 745
54 226 15 393 -129 547 -131 141 -292 213 -486 218 -58 2 -109 2 -115 0z
m1024 -2160 c134 -21 226 -122 256 -281 15 -79 10 -149 -16 -227 -52 -156
-145 -238 -279 -245 -159 -9 -327 77 -402 208 -53 91 -65 183 -39 303 36 166
99 229 244 245 72 9 174 7 236 -3z"/>
</g>
</svg>
